<mxfile host="app.diagrams.net" modified="2022-04-29T01:55:16.323Z" agent="5.0 (Windows NT 10.0; Win64; x64) AppleWebKit/537.36 (KHTML, like Gecko) Chrome/100.0.4896.127 Safari/537.36" etag="EcOVAsKE2WtXlyjM-nKR" version="17.4.6" type="github">
  <diagram id="6AXaRndndwJPt1MwAMgJ" name="Page-1">
    <mxGraphModel dx="782" dy="406" grid="1" gridSize="10" guides="1" tooltips="1" connect="1" arrows="1" fold="1" page="1" pageScale="1" pageWidth="827" pageHeight="1169" math="0" shadow="0">
      <root>
        <mxCell id="0" />
        <mxCell id="1" parent="0" />
        <mxCell id="so76FGAgOnGqH451jvw7-10" style="edgeStyle=orthogonalEdgeStyle;rounded=0;orthogonalLoop=1;jettySize=auto;html=1;exitX=0.5;exitY=1;exitDx=0;exitDy=0;" edge="1" parent="1" source="so76FGAgOnGqH451jvw7-1" target="so76FGAgOnGqH451jvw7-6">
          <mxGeometry relative="1" as="geometry" />
        </mxCell>
        <mxCell id="so76FGAgOnGqH451jvw7-14" value="" style="edgeStyle=orthogonalEdgeStyle;rounded=0;orthogonalLoop=1;jettySize=auto;html=1;" edge="1" parent="1" source="so76FGAgOnGqH451jvw7-1" target="so76FGAgOnGqH451jvw7-7">
          <mxGeometry relative="1" as="geometry" />
        </mxCell>
        <mxCell id="so76FGAgOnGqH451jvw7-1" value="USUARIOS" style="rounded=0;whiteSpace=wrap;html=1;fillColor=#1ba1e2;fontColor=#ffffff;strokeColor=#006EAF;" vertex="1" parent="1">
          <mxGeometry x="160" y="70" width="120" height="50" as="geometry" />
        </mxCell>
        <mxCell id="so76FGAgOnGqH451jvw7-21" value="" style="edgeStyle=orthogonalEdgeStyle;rounded=0;orthogonalLoop=1;jettySize=auto;html=1;" edge="1" parent="1" source="so76FGAgOnGqH451jvw7-2" target="so76FGAgOnGqH451jvw7-9">
          <mxGeometry relative="1" as="geometry" />
        </mxCell>
        <mxCell id="so76FGAgOnGqH451jvw7-2" value="CATEGORIAS" style="rounded=0;whiteSpace=wrap;html=1;fillColor=#1ba1e2;fontColor=#ffffff;strokeColor=#006EAF;" vertex="1" parent="1">
          <mxGeometry x="160" y="280" width="120" height="60" as="geometry" />
        </mxCell>
        <mxCell id="so76FGAgOnGqH451jvw7-12" value="" style="edgeStyle=orthogonalEdgeStyle;rounded=0;orthogonalLoop=1;jettySize=auto;html=1;" edge="1" parent="1" source="so76FGAgOnGqH451jvw7-3" target="so76FGAgOnGqH451jvw7-6">
          <mxGeometry relative="1" as="geometry" />
        </mxCell>
        <mxCell id="so76FGAgOnGqH451jvw7-18" value="" style="edgeStyle=orthogonalEdgeStyle;rounded=0;orthogonalLoop=1;jettySize=auto;html=1;" edge="1" parent="1" source="so76FGAgOnGqH451jvw7-3" target="so76FGAgOnGqH451jvw7-8">
          <mxGeometry relative="1" as="geometry" />
        </mxCell>
        <mxCell id="so76FGAgOnGqH451jvw7-20" value="" style="edgeStyle=orthogonalEdgeStyle;rounded=0;orthogonalLoop=1;jettySize=auto;html=1;entryX=1;entryY=0.5;entryDx=0;entryDy=0;" edge="1" parent="1" source="so76FGAgOnGqH451jvw7-3" target="so76FGAgOnGqH451jvw7-9">
          <mxGeometry relative="1" as="geometry">
            <Array as="points">
              <mxPoint x="395" y="310" />
            </Array>
          </mxGeometry>
        </mxCell>
        <mxCell id="so76FGAgOnGqH451jvw7-25" style="edgeStyle=orthogonalEdgeStyle;rounded=0;orthogonalLoop=1;jettySize=auto;html=1;exitX=0.75;exitY=1;exitDx=0;exitDy=0;entryX=0.122;entryY=0.6;entryDx=0;entryDy=0;entryPerimeter=0;" edge="1" parent="1" source="so76FGAgOnGqH451jvw7-3" target="so76FGAgOnGqH451jvw7-24">
          <mxGeometry relative="1" as="geometry" />
        </mxCell>
        <mxCell id="so76FGAgOnGqH451jvw7-3" value="POSTS" style="rounded=0;whiteSpace=wrap;html=1;fillColor=#1ba1e2;fontColor=#ffffff;strokeColor=#006EAF;" vertex="1" parent="1">
          <mxGeometry x="335" y="180" width="120" height="60" as="geometry" />
        </mxCell>
        <mxCell id="so76FGAgOnGqH451jvw7-15" value="" style="edgeStyle=orthogonalEdgeStyle;rounded=0;orthogonalLoop=1;jettySize=auto;html=1;" edge="1" parent="1" source="so76FGAgOnGqH451jvw7-4" target="so76FGAgOnGqH451jvw7-7">
          <mxGeometry relative="1" as="geometry" />
        </mxCell>
        <mxCell id="so76FGAgOnGqH451jvw7-17" value="" style="edgeStyle=orthogonalEdgeStyle;rounded=0;orthogonalLoop=1;jettySize=auto;html=1;" edge="1" parent="1" source="so76FGAgOnGqH451jvw7-4" target="so76FGAgOnGqH451jvw7-8">
          <mxGeometry relative="1" as="geometry" />
        </mxCell>
        <mxCell id="so76FGAgOnGqH451jvw7-4" value="COMENTARIOS" style="rounded=0;whiteSpace=wrap;html=1;fillColor=#1ba1e2;fontColor=#ffffff;strokeColor=#006EAF;" vertex="1" parent="1">
          <mxGeometry x="520" y="65" width="120" height="60" as="geometry" />
        </mxCell>
        <mxCell id="so76FGAgOnGqH451jvw7-26" style="edgeStyle=orthogonalEdgeStyle;rounded=0;orthogonalLoop=1;jettySize=auto;html=1;exitX=0;exitY=0.5;exitDx=0;exitDy=0;entryX=0.933;entryY=0.525;entryDx=0;entryDy=0;entryPerimeter=0;" edge="1" parent="1" source="so76FGAgOnGqH451jvw7-5" target="so76FGAgOnGqH451jvw7-24">
          <mxGeometry relative="1" as="geometry">
            <Array as="points">
              <mxPoint x="520" y="311" />
            </Array>
          </mxGeometry>
        </mxCell>
        <mxCell id="so76FGAgOnGqH451jvw7-5" value="ETIQUETAS" style="rounded=0;whiteSpace=wrap;html=1;fillColor=#1ba1e2;fontColor=#ffffff;strokeColor=#006EAF;" vertex="1" parent="1">
          <mxGeometry x="520" y="280" width="120" height="60" as="geometry" />
        </mxCell>
        <mxCell id="so76FGAgOnGqH451jvw7-6" value="ESCRIBE" style="rhombus;whiteSpace=wrap;html=1;fillColor=#a20025;strokeColor=#6F0000;fontColor=#ffffff;" vertex="1" parent="1">
          <mxGeometry x="175" y="190" width="90" height="40" as="geometry" />
        </mxCell>
        <mxCell id="so76FGAgOnGqH451jvw7-7" value="ESCRIBE" style="rhombus;whiteSpace=wrap;html=1;fillColor=#a20025;fontColor=#ffffff;strokeColor=#6F0000;" vertex="1" parent="1">
          <mxGeometry x="350" y="75" width="90" height="40" as="geometry" />
        </mxCell>
        <mxCell id="so76FGAgOnGqH451jvw7-8" value="TIENE" style="rhombus;whiteSpace=wrap;html=1;fillColor=#a20025;fontColor=#ffffff;strokeColor=#6F0000;" vertex="1" parent="1">
          <mxGeometry x="535" y="190" width="90" height="40" as="geometry" />
        </mxCell>
        <mxCell id="so76FGAgOnGqH451jvw7-9" value="TIENE" style="rhombus;whiteSpace=wrap;html=1;fillColor=#a20025;fontColor=#ffffff;strokeColor=#6F0000;" vertex="1" parent="1">
          <mxGeometry x="310" y="290" width="90" height="40" as="geometry" />
        </mxCell>
        <mxCell id="so76FGAgOnGqH451jvw7-13" value="&lt;b&gt;1:N&lt;/b&gt;" style="text;html=1;strokeColor=none;fillColor=none;align=center;verticalAlign=middle;whiteSpace=wrap;rounded=0;" vertex="1" parent="1">
          <mxGeometry x="220" y="170" width="60" height="30" as="geometry" />
        </mxCell>
        <mxCell id="so76FGAgOnGqH451jvw7-16" value="&lt;b&gt;1:N&lt;/b&gt;" style="text;html=1;strokeColor=none;fillColor=none;align=center;verticalAlign=middle;whiteSpace=wrap;rounded=0;" vertex="1" parent="1">
          <mxGeometry x="365" y="45" width="60" height="30" as="geometry" />
        </mxCell>
        <mxCell id="so76FGAgOnGqH451jvw7-19" value="&lt;b&gt;1:N&lt;/b&gt;" style="text;html=1;strokeColor=none;fillColor=none;align=center;verticalAlign=middle;whiteSpace=wrap;rounded=0;" vertex="1" parent="1">
          <mxGeometry x="520" y="170" width="60" height="30" as="geometry" />
        </mxCell>
        <mxCell id="so76FGAgOnGqH451jvw7-22" value="&lt;b&gt;1:N&lt;/b&gt;" style="text;html=1;strokeColor=none;fillColor=none;align=center;verticalAlign=middle;whiteSpace=wrap;rounded=0;" vertex="1" parent="1">
          <mxGeometry x="320" y="260" width="60" height="30" as="geometry" />
        </mxCell>
        <mxCell id="so76FGAgOnGqH451jvw7-23" value="&lt;b&gt;N:N&lt;/b&gt;" style="text;html=1;strokeColor=none;fillColor=none;align=center;verticalAlign=middle;whiteSpace=wrap;rounded=0;" vertex="1" parent="1">
          <mxGeometry x="440" y="260" width="60" height="30" as="geometry" />
        </mxCell>
        <mxCell id="so76FGAgOnGqH451jvw7-24" value="TIENE" style="rhombus;whiteSpace=wrap;html=1;fillColor=#a20025;fontColor=#ffffff;strokeColor=#6F0000;" vertex="1" parent="1">
          <mxGeometry x="414" y="290" width="90" height="40" as="geometry" />
        </mxCell>
      </root>
    </mxGraphModel>
  </diagram>
</mxfile>
